<?xml version="1.0" encoding="UTF-8" standalone="no"?>
<!DOCTYPE svg PUBLIC "-//W3C//DTD SVG 1.1//EN"
 "http://www.w3.org/Graphics/SVG/1.1/DTD/svg11.dtd">
<!-- Generated by graphviz version 2.43.0 (0)
 -->
<!-- Title: Tree Pages: 1 -->
<svg width="2162pt" height="909pt"
 viewBox="0.00 0.00 2162.00 909.00" xmlns="http://www.w3.org/2000/svg" xmlns:xlink="http://www.w3.org/1999/xlink">
<g id="graph0" class="graph" transform="scale(1 1) rotate(0) translate(4 905)">
<title>Tree</title>
<polygon fill="white" stroke="transparent" points="-4,4 -4,-905 2158,-905 2158,4 -4,4"/>
<!-- 0 -->
<g id="node1" class="node">
<title>0</title>
<path fill="#fffffe" stroke="black" d="M1527,-901C1527,-901 1330,-901 1330,-901 1324,-901 1318,-895 1318,-889 1318,-889 1318,-830 1318,-830 1318,-824 1324,-818 1330,-818 1330,-818 1527,-818 1527,-818 1533,-818 1539,-824 1539,-830 1539,-830 1539,-889 1539,-889 1539,-895 1533,-901 1527,-901"/>
<text text-anchor="start" x="1359" y="-885.8" font-family="Helvetica,sans-Serif" font-size="14.00">expert_4_2 ≤ 8.756</text>
<text text-anchor="start" x="1371" y="-870.8" font-family="Helvetica,sans-Serif" font-size="14.00">entropy = 1.997</text>
<text text-anchor="start" x="1375.5" y="-855.8" font-family="Helvetica,sans-Serif" font-size="14.00">samples = 520</text>
<text text-anchor="start" x="1326" y="-840.8" font-family="Helvetica,sans-Serif" font-size="14.00">value = [136, 137, 117, 130]</text>
<text text-anchor="start" x="1396" y="-825.8" font-family="Helvetica,sans-Serif" font-size="14.00">class = 1</text>
</g>
<!-- 1 -->
<g id="node2" class="node">
<title>1</title>
<path fill="#fef8f5" stroke="black" d="M1356.5,-782C1356.5,-782 1186.5,-782 1186.5,-782 1180.5,-782 1174.5,-776 1174.5,-770 1174.5,-770 1174.5,-711 1174.5,-711 1174.5,-705 1180.5,-699 1186.5,-699 1186.5,-699 1356.5,-699 1356.5,-699 1362.5,-699 1368.5,-705 1368.5,-711 1368.5,-711 1368.5,-770 1368.5,-770 1368.5,-776 1362.5,-782 1356.5,-782"/>
<text text-anchor="start" x="1202" y="-766.8" font-family="Helvetica,sans-Serif" font-size="14.00">expert_3_1 ≤ 0.956</text>
<text text-anchor="start" x="1214" y="-751.8" font-family="Helvetica,sans-Serif" font-size="14.00">entropy = 1.434</text>
<text text-anchor="start" x="1218.5" y="-736.8" font-family="Helvetica,sans-Serif" font-size="14.00">samples = 271</text>
<text text-anchor="start" x="1182.5" y="-721.8" font-family="Helvetica,sans-Serif" font-size="14.00">value = [125, 26, 117, 3]</text>
<text text-anchor="start" x="1239" y="-706.8" font-family="Helvetica,sans-Serif" font-size="14.00">class = 0</text>
</g>
<!-- 0&#45;&gt;1 -->
<g id="edge1" class="edge">
<title>0&#45;&gt;1</title>
<path fill="none" stroke="black" d="M1374.03,-817.91C1361.12,-808.29 1347.25,-797.95 1334.02,-788.09"/>
<polygon fill="black" stroke="black" points="1335.98,-785.19 1325.87,-782.02 1331.8,-790.8 1335.98,-785.19"/>
<text text-anchor="middle" x="1329.49" y="-803.06" font-family="Helvetica,sans-Serif" font-size="14.00">True</text>
</g>
<!-- 26 -->
<g id="node27" class="node">
<title>26</title>
<path fill="#fae8fc" stroke="black" d="M1709.5,-782C1709.5,-782 1539.5,-782 1539.5,-782 1533.5,-782 1527.5,-776 1527.5,-770 1527.5,-770 1527.5,-711 1527.5,-711 1527.5,-705 1533.5,-699 1539.5,-699 1539.5,-699 1709.5,-699 1709.5,-699 1715.5,-699 1721.5,-705 1721.5,-711 1721.5,-711 1721.5,-770 1721.5,-770 1721.5,-776 1715.5,-782 1709.5,-782"/>
<text text-anchor="start" x="1550.5" y="-766.8" font-family="Helvetica,sans-Serif" font-size="14.00">expert_0_2 ≤ 16.237</text>
<text text-anchor="start" x="1567" y="-751.8" font-family="Helvetica,sans-Serif" font-size="14.00">entropy = 1.214</text>
<text text-anchor="start" x="1571.5" y="-736.8" font-family="Helvetica,sans-Serif" font-size="14.00">samples = 249</text>
<text text-anchor="start" x="1535.5" y="-721.8" font-family="Helvetica,sans-Serif" font-size="14.00">value = [11, 111, 0, 127]</text>
<text text-anchor="start" x="1592" y="-706.8" font-family="Helvetica,sans-Serif" font-size="14.00">class = 3</text>
</g>
<!-- 0&#45;&gt;26 -->
<g id="edge26" class="edge">
<title>0&#45;&gt;26</title>
<path fill="none" stroke="black" d="M1496.5,-817.91C1513.07,-808.02 1530.91,-797.37 1547.85,-787.25"/>
<polygon fill="black" stroke="black" points="1549.83,-790.15 1556.62,-782.02 1546.24,-784.14 1549.83,-790.15"/>
<text text-anchor="middle" x="1550.5" y="-802.56" font-family="Helvetica,sans-Serif" font-size="14.00">False</text>
</g>
<!-- 2 -->
<g id="node3" class="node">
<title>2</title>
<path fill="#6fb8ec" stroke="black" d="M1106.5,-663C1106.5,-663 900.5,-663 900.5,-663 894.5,-663 888.5,-657 888.5,-651 888.5,-651 888.5,-592 888.5,-592 888.5,-586 894.5,-580 900.5,-580 900.5,-580 1106.5,-580 1106.5,-580 1112.5,-580 1118.5,-586 1118.5,-592 1118.5,-592 1118.5,-651 1118.5,-651 1118.5,-657 1112.5,-663 1106.5,-663"/>
<text text-anchor="start" x="934" y="-647.8" font-family="Helvetica,sans-Serif" font-size="14.00">expert_4_2 ≤ 1.485</text>
<text text-anchor="start" x="946" y="-632.8" font-family="Helvetica,sans-Serif" font-size="14.00">entropy = 0.983</text>
<text text-anchor="start" x="950.5" y="-617.8" font-family="Helvetica,sans-Serif" font-size="14.00">samples = 147</text>
<text text-anchor="start" x="896.5" y="-602.8" font-family="Helvetica,sans-Serif" font-size="14.00">value = [4.0, 26.0, 114.0, 3.0]</text>
<text text-anchor="start" x="971" y="-587.8" font-family="Helvetica,sans-Serif" font-size="14.00">class = 2</text>
</g>
<!-- 1&#45;&gt;2 -->
<g id="edge2" class="edge">
<title>1&#45;&gt;2</title>
<path fill="none" stroke="black" d="M1178.52,-698.91C1155.03,-688.65 1129.68,-677.59 1105.76,-667.14"/>
<polygon fill="black" stroke="black" points="1106.88,-663.81 1096.32,-663.02 1104.08,-670.23 1106.88,-663.81"/>
</g>
<!-- 23 -->
<g id="node24" class="node">
<title>23</title>
<path fill="#e6843e" stroke="black" d="M1343,-663C1343,-663 1200,-663 1200,-663 1194,-663 1188,-657 1188,-651 1188,-651 1188,-592 1188,-592 1188,-586 1194,-580 1200,-580 1200,-580 1343,-580 1343,-580 1349,-580 1355,-586 1355,-592 1355,-592 1355,-651 1355,-651 1355,-657 1349,-663 1343,-663"/>
<text text-anchor="start" x="1197.5" y="-647.8" font-family="Helvetica,sans-Serif" font-size="14.00">expert_0_1 ≤ 16.615</text>
<text text-anchor="start" x="1214" y="-632.8" font-family="Helvetica,sans-Serif" font-size="14.00">entropy = 0.164</text>
<text text-anchor="start" x="1218.5" y="-617.8" font-family="Helvetica,sans-Serif" font-size="14.00">samples = 124</text>
<text text-anchor="start" x="1196" y="-602.8" font-family="Helvetica,sans-Serif" font-size="14.00">value = [121, 0, 3, 0]</text>
<text text-anchor="start" x="1239" y="-587.8" font-family="Helvetica,sans-Serif" font-size="14.00">class = 0</text>
</g>
<!-- 1&#45;&gt;23 -->
<g id="edge23" class="edge">
<title>1&#45;&gt;23</title>
<path fill="none" stroke="black" d="M1271.5,-698.91C1271.5,-690.65 1271.5,-681.86 1271.5,-673.3"/>
<polygon fill="black" stroke="black" points="1275,-673.02 1271.5,-663.02 1268,-673.02 1275,-673.02"/>
</g>
<!-- 3 -->
<g id="node4" class="node">
<title>3</title>
<path fill="#46a3e7" stroke="black" d="M682,-544C682,-544 539,-544 539,-544 533,-544 527,-538 527,-532 527,-532 527,-473 527,-473 527,-467 533,-461 539,-461 539,-461 682,-461 682,-461 688,-461 694,-467 694,-473 694,-473 694,-532 694,-532 694,-538 688,-544 682,-544"/>
<text text-anchor="start" x="536.5" y="-528.8" font-family="Helvetica,sans-Serif" font-size="14.00">expert_14_2 ≤ 4.032</text>
<text text-anchor="start" x="553" y="-513.8" font-family="Helvetica,sans-Serif" font-size="14.00">entropy = 0.389</text>
<text text-anchor="start" x="557.5" y="-498.8" font-family="Helvetica,sans-Serif" font-size="14.00">samples = 113</text>
<text text-anchor="start" x="535" y="-483.8" font-family="Helvetica,sans-Serif" font-size="14.00">value = [2, 5, 106, 0]</text>
<text text-anchor="start" x="578" y="-468.8" font-family="Helvetica,sans-Serif" font-size="14.00">class = 2</text>
</g>
<!-- 2&#45;&gt;3 -->
<g id="edge3" class="edge">
<title>2&#45;&gt;3</title>
<path fill="none" stroke="black" d="M888.24,-586.19C829.59,-568.73 759.22,-547.78 703.99,-531.33"/>
<polygon fill="black" stroke="black" points="704.79,-527.92 694.21,-528.42 702.8,-534.63 704.79,-527.92"/>
</g>
<!-- 12 -->
<g id="node13" class="node">
<title>12</title>
<path fill="#a3f29c" stroke="black" d="M1070.5,-544C1070.5,-544 936.5,-544 936.5,-544 930.5,-544 924.5,-538 924.5,-532 924.5,-532 924.5,-473 924.5,-473 924.5,-467 930.5,-461 936.5,-461 936.5,-461 1070.5,-461 1070.5,-461 1076.5,-461 1082.5,-467 1082.5,-473 1082.5,-473 1082.5,-532 1082.5,-532 1082.5,-538 1076.5,-544 1070.5,-544"/>
<text text-anchor="start" x="934" y="-528.8" font-family="Helvetica,sans-Serif" font-size="14.00">expert_0_1 ≤ 5.284</text>
<text text-anchor="start" x="950.5" y="-513.8" font-family="Helvetica,sans-Serif" font-size="14.00">entropy = 1.47</text>
<text text-anchor="start" x="955" y="-498.8" font-family="Helvetica,sans-Serif" font-size="14.00">samples = 34</text>
<text text-anchor="start" x="932.5" y="-483.8" font-family="Helvetica,sans-Serif" font-size="14.00">value = [2, 21, 8, 3]</text>
<text text-anchor="start" x="971" y="-468.8" font-family="Helvetica,sans-Serif" font-size="14.00">class = 1</text>
</g>
<!-- 2&#45;&gt;12 -->
<g id="edge12" class="edge">
<title>2&#45;&gt;12</title>
<path fill="none" stroke="black" d="M1003.5,-579.91C1003.5,-571.65 1003.5,-562.86 1003.5,-554.3"/>
<polygon fill="black" stroke="black" points="1007,-554.02 1003.5,-544.02 1000,-554.02 1007,-554.02"/>
</g>
<!-- 4 -->
<g id="node5" class="node">
<title>4</title>
<path fill="#3d9fe5" stroke="black" d="M435,-425C435,-425 238,-425 238,-425 232,-425 226,-419 226,-413 226,-413 226,-354 226,-354 226,-348 232,-342 238,-342 238,-342 435,-342 435,-342 441,-342 447,-348 447,-354 447,-354 447,-413 447,-413 447,-419 441,-425 435,-425"/>
<text text-anchor="start" x="262.5" y="-409.8" font-family="Helvetica,sans-Serif" font-size="14.00">expert_10_2 ≤ 3.127</text>
<text text-anchor="start" x="279" y="-394.8" font-family="Helvetica,sans-Serif" font-size="14.00">entropy = 0.134</text>
<text text-anchor="start" x="283.5" y="-379.8" font-family="Helvetica,sans-Serif" font-size="14.00">samples = 107</text>
<text text-anchor="start" x="234" y="-364.8" font-family="Helvetica,sans-Serif" font-size="14.00">value = [0.0, 2.0, 105.0, 0.0]</text>
<text text-anchor="start" x="304" y="-349.8" font-family="Helvetica,sans-Serif" font-size="14.00">class = 2</text>
</g>
<!-- 3&#45;&gt;4 -->
<g id="edge4" class="edge">
<title>3&#45;&gt;4</title>
<path fill="none" stroke="black" d="M526.8,-465.76C499.8,-454.23 469.51,-441.3 441.19,-429.2"/>
<polygon fill="black" stroke="black" points="442.24,-425.84 431.66,-425.14 439.49,-432.28 442.24,-425.84"/>
</g>
<!-- 9 -->
<g id="node10" class="node">
<title>9</title>
<path fill="#d1f8ce" stroke="black" d="M676,-425C676,-425 545,-425 545,-425 539,-425 533,-419 533,-413 533,-413 533,-354 533,-354 533,-348 539,-342 545,-342 545,-342 676,-342 676,-342 682,-342 688,-348 688,-354 688,-354 688,-413 688,-413 688,-419 682,-425 676,-425"/>
<text text-anchor="start" x="541" y="-409.8" font-family="Helvetica,sans-Serif" font-size="14.00">expert_1_0 ≤ 0.483</text>
<text text-anchor="start" x="553" y="-394.8" font-family="Helvetica,sans-Serif" font-size="14.00">entropy = 1.459</text>
<text text-anchor="start" x="566.5" y="-379.8" font-family="Helvetica,sans-Serif" font-size="14.00">samples = 6</text>
<text text-anchor="start" x="544" y="-364.8" font-family="Helvetica,sans-Serif" font-size="14.00">value = [2, 3, 1, 0]</text>
<text text-anchor="start" x="578" y="-349.8" font-family="Helvetica,sans-Serif" font-size="14.00">class = 1</text>
</g>
<!-- 3&#45;&gt;9 -->
<g id="edge9" class="edge">
<title>3&#45;&gt;9</title>
<path fill="none" stroke="black" d="M610.5,-460.91C610.5,-452.65 610.5,-443.86 610.5,-435.3"/>
<polygon fill="black" stroke="black" points="614,-435.02 610.5,-425.02 607,-435.02 614,-435.02"/>
</g>
<!-- 5 -->
<g id="node6" class="node">
<title>5</title>
<path fill="#88c4ef" stroke="black" d="M223,-306C223,-306 92,-306 92,-306 86,-306 80,-300 80,-294 80,-294 80,-235 80,-235 80,-229 86,-223 92,-223 92,-223 223,-223 223,-223 229,-223 235,-229 235,-235 235,-235 235,-294 235,-294 235,-300 229,-306 223,-306"/>
<text text-anchor="start" x="88" y="-290.8" font-family="Helvetica,sans-Serif" font-size="14.00">expert_6_0 ≤ 3.609</text>
<text text-anchor="start" x="100" y="-275.8" font-family="Helvetica,sans-Serif" font-size="14.00">entropy = 0.863</text>
<text text-anchor="start" x="113.5" y="-260.8" font-family="Helvetica,sans-Serif" font-size="14.00">samples = 7</text>
<text text-anchor="start" x="91" y="-245.8" font-family="Helvetica,sans-Serif" font-size="14.00">value = [0, 2, 5, 0]</text>
<text text-anchor="start" x="125" y="-230.8" font-family="Helvetica,sans-Serif" font-size="14.00">class = 2</text>
</g>
<!-- 4&#45;&gt;5 -->
<g id="edge5" class="edge">
<title>4&#45;&gt;5</title>
<path fill="none" stroke="black" d="M274.4,-341.91C259.4,-332.11 243.27,-321.56 227.93,-311.53"/>
<polygon fill="black" stroke="black" points="229.78,-308.56 219.49,-306.02 225.95,-314.42 229.78,-308.56"/>
</g>
<!-- 8 -->
<g id="node9" class="node">
<title>8</title>
<path fill="#399de5" stroke="black" d="M408,-298.5C408,-298.5 265,-298.5 265,-298.5 259,-298.5 253,-292.5 253,-286.5 253,-286.5 253,-242.5 253,-242.5 253,-236.5 259,-230.5 265,-230.5 265,-230.5 408,-230.5 408,-230.5 414,-230.5 420,-236.5 420,-242.5 420,-242.5 420,-286.5 420,-286.5 420,-292.5 414,-298.5 408,-298.5"/>
<text text-anchor="start" x="288" y="-283.3" font-family="Helvetica,sans-Serif" font-size="14.00">entropy = 0.0</text>
<text text-anchor="start" x="283.5" y="-268.3" font-family="Helvetica,sans-Serif" font-size="14.00">samples = 100</text>
<text text-anchor="start" x="261" y="-253.3" font-family="Helvetica,sans-Serif" font-size="14.00">value = [0, 0, 100, 0]</text>
<text text-anchor="start" x="304" y="-238.3" font-family="Helvetica,sans-Serif" font-size="14.00">class = 2</text>
</g>
<!-- 4&#45;&gt;8 -->
<g id="edge8" class="edge">
<title>4&#45;&gt;8</title>
<path fill="none" stroke="black" d="M336.5,-341.91C336.5,-331.2 336.5,-319.62 336.5,-308.78"/>
<polygon fill="black" stroke="black" points="340,-308.67 336.5,-298.67 333,-308.67 340,-308.67"/>
</g>
<!-- 6 -->
<g id="node7" class="node">
<title>6</title>
<path fill="#a3f29c" stroke="black" d="M137,-179.5C137,-179.5 12,-179.5 12,-179.5 6,-179.5 0,-173.5 0,-167.5 0,-167.5 0,-123.5 0,-123.5 0,-117.5 6,-111.5 12,-111.5 12,-111.5 137,-111.5 137,-111.5 143,-111.5 149,-117.5 149,-123.5 149,-123.5 149,-167.5 149,-167.5 149,-173.5 143,-179.5 137,-179.5"/>
<text text-anchor="start" x="17" y="-164.3" font-family="Helvetica,sans-Serif" font-size="14.00">entropy = 0.918</text>
<text text-anchor="start" x="30.5" y="-149.3" font-family="Helvetica,sans-Serif" font-size="14.00">samples = 3</text>
<text text-anchor="start" x="8" y="-134.3" font-family="Helvetica,sans-Serif" font-size="14.00">value = [0, 2, 1, 0]</text>
<text text-anchor="start" x="42" y="-119.3" font-family="Helvetica,sans-Serif" font-size="14.00">class = 1</text>
</g>
<!-- 5&#45;&gt;6 -->
<g id="edge6" class="edge">
<title>5&#45;&gt;6</title>
<path fill="none" stroke="black" d="M128.7,-222.91C120.72,-211.65 112.04,-199.42 104.02,-188.11"/>
<polygon fill="black" stroke="black" points="106.67,-185.8 98.03,-179.67 100.96,-189.85 106.67,-185.8"/>
</g>
<!-- 7 -->
<g id="node8" class="node">
<title>7</title>
<path fill="#399de5" stroke="black" d="M304,-179.5C304,-179.5 179,-179.5 179,-179.5 173,-179.5 167,-173.5 167,-167.5 167,-167.5 167,-123.5 167,-123.5 167,-117.5 173,-111.5 179,-111.5 179,-111.5 304,-111.5 304,-111.5 310,-111.5 316,-117.5 316,-123.5 316,-123.5 316,-167.5 316,-167.5 316,-173.5 310,-179.5 304,-179.5"/>
<text text-anchor="start" x="193" y="-164.3" font-family="Helvetica,sans-Serif" font-size="14.00">entropy = 0.0</text>
<text text-anchor="start" x="197.5" y="-149.3" font-family="Helvetica,sans-Serif" font-size="14.00">samples = 4</text>
<text text-anchor="start" x="175" y="-134.3" font-family="Helvetica,sans-Serif" font-size="14.00">value = [0, 0, 4, 0]</text>
<text text-anchor="start" x="209" y="-119.3" font-family="Helvetica,sans-Serif" font-size="14.00">class = 2</text>
</g>
<!-- 5&#45;&gt;7 -->
<g id="edge7" class="edge">
<title>5&#45;&gt;7</title>
<path fill="none" stroke="black" d="M186.64,-222.91C194.72,-211.65 203.51,-199.42 211.63,-188.11"/>
<polygon fill="black" stroke="black" points="214.7,-189.83 217.69,-179.67 209.01,-185.75 214.7,-189.83"/>
</g>
<!-- 10 -->
<g id="node11" class="node">
<title>10</title>
<path fill="#47e539" stroke="black" d="M575,-298.5C575,-298.5 450,-298.5 450,-298.5 444,-298.5 438,-292.5 438,-286.5 438,-286.5 438,-242.5 438,-242.5 438,-236.5 444,-230.5 450,-230.5 450,-230.5 575,-230.5 575,-230.5 581,-230.5 587,-236.5 587,-242.5 587,-242.5 587,-286.5 587,-286.5 587,-292.5 581,-298.5 575,-298.5"/>
<text text-anchor="start" x="464" y="-283.3" font-family="Helvetica,sans-Serif" font-size="14.00">entropy = 0.0</text>
<text text-anchor="start" x="468.5" y="-268.3" font-family="Helvetica,sans-Serif" font-size="14.00">samples = 3</text>
<text text-anchor="start" x="446" y="-253.3" font-family="Helvetica,sans-Serif" font-size="14.00">value = [0, 3, 0, 0]</text>
<text text-anchor="start" x="480" y="-238.3" font-family="Helvetica,sans-Serif" font-size="14.00">class = 1</text>
</g>
<!-- 9&#45;&gt;10 -->
<g id="edge10" class="edge">
<title>9&#45;&gt;10</title>
<path fill="none" stroke="black" d="M576.5,-341.91C566.89,-330.43 556.42,-317.94 546.79,-306.44"/>
<polygon fill="black" stroke="black" points="549.39,-304.09 540.28,-298.67 544.02,-308.58 549.39,-304.09"/>
</g>
<!-- 11 -->
<g id="node12" class="node">
<title>11</title>
<path fill="#f2c09c" stroke="black" d="M742,-298.5C742,-298.5 617,-298.5 617,-298.5 611,-298.5 605,-292.5 605,-286.5 605,-286.5 605,-242.5 605,-242.5 605,-236.5 611,-230.5 617,-230.5 617,-230.5 742,-230.5 742,-230.5 748,-230.5 754,-236.5 754,-242.5 754,-242.5 754,-286.5 754,-286.5 754,-292.5 748,-298.5 742,-298.5"/>
<text text-anchor="start" x="622" y="-283.3" font-family="Helvetica,sans-Serif" font-size="14.00">entropy = 0.918</text>
<text text-anchor="start" x="635.5" y="-268.3" font-family="Helvetica,sans-Serif" font-size="14.00">samples = 3</text>
<text text-anchor="start" x="613" y="-253.3" font-family="Helvetica,sans-Serif" font-size="14.00">value = [2, 0, 1, 0]</text>
<text text-anchor="start" x="647" y="-238.3" font-family="Helvetica,sans-Serif" font-size="14.00">class = 0</text>
</g>
<!-- 9&#45;&gt;11 -->
<g id="edge11" class="edge">
<title>9&#45;&gt;11</title>
<path fill="none" stroke="black" d="M634.44,-341.91C641.01,-330.76 648.15,-318.66 654.77,-307.44"/>
<polygon fill="black" stroke="black" points="657.87,-309.06 659.94,-298.67 651.85,-305.5 657.87,-309.06"/>
</g>
<!-- 13 -->
<g id="node14" class="node">
<title>13</title>
<path fill="#f8defb" stroke="black" d="M1073.5,-425C1073.5,-425 933.5,-425 933.5,-425 927.5,-425 921.5,-419 921.5,-413 921.5,-413 921.5,-354 921.5,-354 921.5,-348 927.5,-342 933.5,-342 933.5,-342 1073.5,-342 1073.5,-342 1079.5,-342 1085.5,-348 1085.5,-354 1085.5,-354 1085.5,-413 1085.5,-413 1085.5,-419 1079.5,-425 1073.5,-425"/>
<text text-anchor="start" x="929.5" y="-409.8" font-family="Helvetica,sans-Serif" font-size="14.00">expert_12_0 ≤ 2.499</text>
<text text-anchor="start" x="946" y="-394.8" font-family="Helvetica,sans-Serif" font-size="14.00">entropy = 1.906</text>
<text text-anchor="start" x="959.5" y="-379.8" font-family="Helvetica,sans-Serif" font-size="14.00">samples = 8</text>
<text text-anchor="start" x="937" y="-364.8" font-family="Helvetica,sans-Serif" font-size="14.00">value = [2, 2, 1, 3]</text>
<text text-anchor="start" x="971" y="-349.8" font-family="Helvetica,sans-Serif" font-size="14.00">class = 3</text>
</g>
<!-- 12&#45;&gt;13 -->
<g id="edge13" class="edge">
<title>12&#45;&gt;13</title>
<path fill="none" stroke="black" d="M1003.5,-460.91C1003.5,-452.65 1003.5,-443.86 1003.5,-435.3"/>
<polygon fill="black" stroke="black" points="1007,-435.02 1003.5,-425.02 1000,-435.02 1007,-435.02"/>
</g>
<!-- 16 -->
<g id="node17" class="node">
<title>16</title>
<path fill="#8bef82" stroke="black" d="M1251.5,-425C1251.5,-425 1117.5,-425 1117.5,-425 1111.5,-425 1105.5,-419 1105.5,-413 1105.5,-413 1105.5,-354 1105.5,-354 1105.5,-348 1111.5,-342 1117.5,-342 1117.5,-342 1251.5,-342 1251.5,-342 1257.5,-342 1263.5,-348 1263.5,-354 1263.5,-354 1263.5,-413 1263.5,-413 1263.5,-419 1257.5,-425 1251.5,-425"/>
<text text-anchor="start" x="1119.5" y="-409.8" font-family="Helvetica,sans-Serif" font-size="14.00">expert_6_0 ≤ 1.06</text>
<text text-anchor="start" x="1131.5" y="-394.8" font-family="Helvetica,sans-Serif" font-size="14.00">entropy = 0.84</text>
<text text-anchor="start" x="1136" y="-379.8" font-family="Helvetica,sans-Serif" font-size="14.00">samples = 26</text>
<text text-anchor="start" x="1113.5" y="-364.8" font-family="Helvetica,sans-Serif" font-size="14.00">value = [0, 19, 7, 0]</text>
<text text-anchor="start" x="1152" y="-349.8" font-family="Helvetica,sans-Serif" font-size="14.00">class = 1</text>
</g>
<!-- 12&#45;&gt;16 -->
<g id="edge16" class="edge">
<title>12&#45;&gt;16</title>
<path fill="none" stroke="black" d="M1066.3,-460.91C1081.46,-451.11 1097.77,-440.56 1113.29,-430.53"/>
<polygon fill="black" stroke="black" points="1115.32,-433.39 1121.81,-425.02 1111.52,-427.51 1115.32,-433.39"/>
</g>
<!-- 14 -->
<g id="node15" class="node">
<title>14</title>
<path fill="#e47bee" stroke="black" d="M909,-298.5C909,-298.5 784,-298.5 784,-298.5 778,-298.5 772,-292.5 772,-286.5 772,-286.5 772,-242.5 772,-242.5 772,-236.5 778,-230.5 784,-230.5 784,-230.5 909,-230.5 909,-230.5 915,-230.5 921,-236.5 921,-242.5 921,-242.5 921,-286.5 921,-286.5 921,-292.5 915,-298.5 909,-298.5"/>
<text text-anchor="start" x="789" y="-283.3" font-family="Helvetica,sans-Serif" font-size="14.00">entropy = 0.811</text>
<text text-anchor="start" x="802.5" y="-268.3" font-family="Helvetica,sans-Serif" font-size="14.00">samples = 4</text>
<text text-anchor="start" x="780" y="-253.3" font-family="Helvetica,sans-Serif" font-size="14.00">value = [0, 0, 1, 3]</text>
<text text-anchor="start" x="814" y="-238.3" font-family="Helvetica,sans-Serif" font-size="14.00">class = 3</text>
</g>
<!-- 13&#45;&gt;14 -->
<g id="edge14" class="edge">
<title>13&#45;&gt;14</title>
<path fill="none" stroke="black" d="M949.03,-341.91C932.89,-329.88 915.25,-316.73 899.22,-304.79"/>
<polygon fill="black" stroke="black" points="901.12,-301.84 891.01,-298.67 896.93,-307.45 901.12,-301.84"/>
</g>
<!-- 15 -->
<g id="node16" class="node">
<title>15</title>
<path fill="#ffffff" stroke="black" d="M1076,-298.5C1076,-298.5 951,-298.5 951,-298.5 945,-298.5 939,-292.5 939,-286.5 939,-286.5 939,-242.5 939,-242.5 939,-236.5 945,-230.5 951,-230.5 951,-230.5 1076,-230.5 1076,-230.5 1082,-230.5 1088,-236.5 1088,-242.5 1088,-242.5 1088,-286.5 1088,-286.5 1088,-292.5 1082,-298.5 1076,-298.5"/>
<text text-anchor="start" x="965" y="-283.3" font-family="Helvetica,sans-Serif" font-size="14.00">entropy = 1.0</text>
<text text-anchor="start" x="969.5" y="-268.3" font-family="Helvetica,sans-Serif" font-size="14.00">samples = 4</text>
<text text-anchor="start" x="947" y="-253.3" font-family="Helvetica,sans-Serif" font-size="14.00">value = [2, 2, 0, 0]</text>
<text text-anchor="start" x="981" y="-238.3" font-family="Helvetica,sans-Serif" font-size="14.00">class = 0</text>
</g>
<!-- 13&#45;&gt;15 -->
<g id="edge15" class="edge">
<title>13&#45;&gt;15</title>
<path fill="none" stroke="black" d="M1006.97,-341.91C1007.88,-331.2 1008.87,-319.62 1009.8,-308.78"/>
<polygon fill="black" stroke="black" points="1013.3,-308.93 1010.67,-298.67 1006.33,-308.33 1013.3,-308.93"/>
</g>
<!-- 17 -->
<g id="node18" class="node">
<title>17</title>
<path fill="#47e539" stroke="black" d="M1251.5,-298.5C1251.5,-298.5 1117.5,-298.5 1117.5,-298.5 1111.5,-298.5 1105.5,-292.5 1105.5,-286.5 1105.5,-286.5 1105.5,-242.5 1105.5,-242.5 1105.5,-236.5 1111.5,-230.5 1117.5,-230.5 1117.5,-230.5 1251.5,-230.5 1251.5,-230.5 1257.5,-230.5 1263.5,-236.5 1263.5,-242.5 1263.5,-242.5 1263.5,-286.5 1263.5,-286.5 1263.5,-292.5 1257.5,-298.5 1251.5,-298.5"/>
<text text-anchor="start" x="1136" y="-283.3" font-family="Helvetica,sans-Serif" font-size="14.00">entropy = 0.0</text>
<text text-anchor="start" x="1136" y="-268.3" font-family="Helvetica,sans-Serif" font-size="14.00">samples = 12</text>
<text text-anchor="start" x="1113.5" y="-253.3" font-family="Helvetica,sans-Serif" font-size="14.00">value = [0, 12, 0, 0]</text>
<text text-anchor="start" x="1152" y="-238.3" font-family="Helvetica,sans-Serif" font-size="14.00">class = 1</text>
</g>
<!-- 16&#45;&gt;17 -->
<g id="edge17" class="edge">
<title>16&#45;&gt;17</title>
<path fill="none" stroke="black" d="M1184.5,-341.91C1184.5,-331.2 1184.5,-319.62 1184.5,-308.78"/>
<polygon fill="black" stroke="black" points="1188,-308.67 1184.5,-298.67 1181,-308.67 1188,-308.67"/>
</g>
<!-- 18 -->
<g id="node19" class="node">
<title>18</title>
<path fill="#ffffff" stroke="black" d="M1433.5,-306C1433.5,-306 1293.5,-306 1293.5,-306 1287.5,-306 1281.5,-300 1281.5,-294 1281.5,-294 1281.5,-235 1281.5,-235 1281.5,-229 1287.5,-223 1293.5,-223 1293.5,-223 1433.5,-223 1433.5,-223 1439.5,-223 1445.5,-229 1445.5,-235 1445.5,-235 1445.5,-294 1445.5,-294 1445.5,-300 1439.5,-306 1433.5,-306"/>
<text text-anchor="start" x="1289.5" y="-290.8" font-family="Helvetica,sans-Serif" font-size="14.00">expert_23_2 ≤ 0.833</text>
<text text-anchor="start" x="1315" y="-275.8" font-family="Helvetica,sans-Serif" font-size="14.00">entropy = 1.0</text>
<text text-anchor="start" x="1315" y="-260.8" font-family="Helvetica,sans-Serif" font-size="14.00">samples = 14</text>
<text text-anchor="start" x="1297" y="-245.8" font-family="Helvetica,sans-Serif" font-size="14.00">value = [0, 7, 7, 0]</text>
<text text-anchor="start" x="1331" y="-230.8" font-family="Helvetica,sans-Serif" font-size="14.00">class = 1</text>
</g>
<!-- 16&#45;&gt;18 -->
<g id="edge18" class="edge">
<title>16&#45;&gt;18</title>
<path fill="none" stroke="black" d="M1246.6,-341.91C1261.6,-332.11 1277.73,-321.56 1293.07,-311.53"/>
<polygon fill="black" stroke="black" points="1295.05,-314.42 1301.51,-306.02 1291.22,-308.56 1295.05,-314.42"/>
</g>
<!-- 19 -->
<g id="node20" class="node">
<title>19</title>
<path fill="#55abe9" stroke="black" d="M1344,-187C1344,-187 1213,-187 1213,-187 1207,-187 1201,-181 1201,-175 1201,-175 1201,-116 1201,-116 1201,-110 1207,-104 1213,-104 1213,-104 1344,-104 1344,-104 1350,-104 1356,-110 1356,-116 1356,-116 1356,-175 1356,-175 1356,-181 1350,-187 1344,-187"/>
<text text-anchor="start" x="1209" y="-171.8" font-family="Helvetica,sans-Serif" font-size="14.00">expert_19_0 ≤ 0.48</text>
<text text-anchor="start" x="1221" y="-156.8" font-family="Helvetica,sans-Serif" font-size="14.00">entropy = 0.544</text>
<text text-anchor="start" x="1234.5" y="-141.8" font-family="Helvetica,sans-Serif" font-size="14.00">samples = 8</text>
<text text-anchor="start" x="1212" y="-126.8" font-family="Helvetica,sans-Serif" font-size="14.00">value = [0, 1, 7, 0]</text>
<text text-anchor="start" x="1246" y="-111.8" font-family="Helvetica,sans-Serif" font-size="14.00">class = 2</text>
</g>
<!-- 18&#45;&gt;19 -->
<g id="edge19" class="edge">
<title>18&#45;&gt;19</title>
<path fill="none" stroke="black" d="M1334.01,-222.91C1327.55,-214.01 1320.64,-204.51 1313.98,-195.33"/>
<polygon fill="black" stroke="black" points="1316.65,-193.05 1307.94,-187.02 1310.98,-197.17 1316.65,-193.05"/>
</g>
<!-- 22 -->
<g id="node23" class="node">
<title>22</title>
<path fill="#47e539" stroke="black" d="M1511,-179.5C1511,-179.5 1386,-179.5 1386,-179.5 1380,-179.5 1374,-173.5 1374,-167.5 1374,-167.5 1374,-123.5 1374,-123.5 1374,-117.5 1380,-111.5 1386,-111.5 1386,-111.5 1511,-111.5 1511,-111.5 1517,-111.5 1523,-117.5 1523,-123.5 1523,-123.5 1523,-167.5 1523,-167.5 1523,-173.5 1517,-179.5 1511,-179.5"/>
<text text-anchor="start" x="1400" y="-164.3" font-family="Helvetica,sans-Serif" font-size="14.00">entropy = 0.0</text>
<text text-anchor="start" x="1404.5" y="-149.3" font-family="Helvetica,sans-Serif" font-size="14.00">samples = 6</text>
<text text-anchor="start" x="1382" y="-134.3" font-family="Helvetica,sans-Serif" font-size="14.00">value = [0, 6, 0, 0]</text>
<text text-anchor="start" x="1416" y="-119.3" font-family="Helvetica,sans-Serif" font-size="14.00">class = 1</text>
</g>
<!-- 18&#45;&gt;22 -->
<g id="edge22" class="edge">
<title>18&#45;&gt;22</title>
<path fill="none" stroke="black" d="M1392.99,-222.91C1401.25,-211.54 1410.23,-199.18 1418.51,-187.77"/>
<polygon fill="black" stroke="black" points="1421.36,-189.81 1424.4,-179.67 1415.7,-185.7 1421.36,-189.81"/>
</g>
<!-- 20 -->
<g id="node21" class="node">
<title>20</title>
<path fill="#9ccef2" stroke="black" d="M1258,-68C1258,-68 1133,-68 1133,-68 1127,-68 1121,-62 1121,-56 1121,-56 1121,-12 1121,-12 1121,-6 1127,0 1133,0 1133,0 1258,0 1258,0 1264,0 1270,-6 1270,-12 1270,-12 1270,-56 1270,-56 1270,-62 1264,-68 1258,-68"/>
<text text-anchor="start" x="1138" y="-52.8" font-family="Helvetica,sans-Serif" font-size="14.00">entropy = 0.918</text>
<text text-anchor="start" x="1151.5" y="-37.8" font-family="Helvetica,sans-Serif" font-size="14.00">samples = 3</text>
<text text-anchor="start" x="1129" y="-22.8" font-family="Helvetica,sans-Serif" font-size="14.00">value = [0, 1, 2, 0]</text>
<text text-anchor="start" x="1163" y="-7.8" font-family="Helvetica,sans-Serif" font-size="14.00">class = 2</text>
</g>
<!-- 19&#45;&gt;20 -->
<g id="edge20" class="edge">
<title>19&#45;&gt;20</title>
<path fill="none" stroke="black" d="M1247.59,-103.73C1240.82,-94.79 1233.64,-85.32 1226.85,-76.36"/>
<polygon fill="black" stroke="black" points="1229.57,-74.15 1220.74,-68.3 1223.99,-78.38 1229.57,-74.15"/>
</g>
<!-- 21 -->
<g id="node22" class="node">
<title>21</title>
<path fill="#399de5" stroke="black" d="M1425,-68C1425,-68 1300,-68 1300,-68 1294,-68 1288,-62 1288,-56 1288,-56 1288,-12 1288,-12 1288,-6 1294,0 1300,0 1300,0 1425,0 1425,0 1431,0 1437,-6 1437,-12 1437,-12 1437,-56 1437,-56 1437,-62 1431,-68 1425,-68"/>
<text text-anchor="start" x="1314" y="-52.8" font-family="Helvetica,sans-Serif" font-size="14.00">entropy = 0.0</text>
<text text-anchor="start" x="1318.5" y="-37.8" font-family="Helvetica,sans-Serif" font-size="14.00">samples = 5</text>
<text text-anchor="start" x="1296" y="-22.8" font-family="Helvetica,sans-Serif" font-size="14.00">value = [0, 0, 5, 0]</text>
<text text-anchor="start" x="1330" y="-7.8" font-family="Helvetica,sans-Serif" font-size="14.00">class = 2</text>
</g>
<!-- 19&#45;&gt;21 -->
<g id="edge21" class="edge">
<title>19&#45;&gt;21</title>
<path fill="none" stroke="black" d="M1309.78,-103.73C1316.64,-94.79 1323.9,-85.32 1330.78,-76.36"/>
<polygon fill="black" stroke="black" points="1333.65,-78.36 1336.96,-68.3 1328.09,-74.1 1333.65,-78.36"/>
</g>
<!-- 24 -->
<g id="node25" class="node">
<title>24</title>
<path fill="#e58139" stroke="black" d="M1255,-536.5C1255,-536.5 1112,-536.5 1112,-536.5 1106,-536.5 1100,-530.5 1100,-524.5 1100,-524.5 1100,-480.5 1100,-480.5 1100,-474.5 1106,-468.5 1112,-468.5 1112,-468.5 1255,-468.5 1255,-468.5 1261,-468.5 1267,-474.5 1267,-480.5 1267,-480.5 1267,-524.5 1267,-524.5 1267,-530.5 1261,-536.5 1255,-536.5"/>
<text text-anchor="start" x="1135" y="-521.3" font-family="Helvetica,sans-Serif" font-size="14.00">entropy = 0.0</text>
<text text-anchor="start" x="1130.5" y="-506.3" font-family="Helvetica,sans-Serif" font-size="14.00">samples = 121</text>
<text text-anchor="start" x="1108" y="-491.3" font-family="Helvetica,sans-Serif" font-size="14.00">value = [121, 0, 0, 0]</text>
<text text-anchor="start" x="1151" y="-476.3" font-family="Helvetica,sans-Serif" font-size="14.00">class = 0</text>
</g>
<!-- 23&#45;&gt;24 -->
<g id="edge24" class="edge">
<title>23&#45;&gt;24</title>
<path fill="none" stroke="black" d="M1240.97,-579.91C1232.42,-568.54 1223.12,-556.18 1214.54,-544.77"/>
<polygon fill="black" stroke="black" points="1217.25,-542.55 1208.45,-536.67 1211.66,-546.76 1217.25,-542.55"/>
</g>
<!-- 25 -->
<g id="node26" class="node">
<title>25</title>
<path fill="#399de5" stroke="black" d="M1422,-536.5C1422,-536.5 1297,-536.5 1297,-536.5 1291,-536.5 1285,-530.5 1285,-524.5 1285,-524.5 1285,-480.5 1285,-480.5 1285,-474.5 1291,-468.5 1297,-468.5 1297,-468.5 1422,-468.5 1422,-468.5 1428,-468.5 1434,-474.5 1434,-480.5 1434,-480.5 1434,-524.5 1434,-524.5 1434,-530.5 1428,-536.5 1422,-536.5"/>
<text text-anchor="start" x="1311" y="-521.3" font-family="Helvetica,sans-Serif" font-size="14.00">entropy = 0.0</text>
<text text-anchor="start" x="1315.5" y="-506.3" font-family="Helvetica,sans-Serif" font-size="14.00">samples = 3</text>
<text text-anchor="start" x="1293" y="-491.3" font-family="Helvetica,sans-Serif" font-size="14.00">value = [0, 0, 3, 0]</text>
<text text-anchor="start" x="1327" y="-476.3" font-family="Helvetica,sans-Serif" font-size="14.00">class = 2</text>
</g>
<!-- 23&#45;&gt;25 -->
<g id="edge25" class="edge">
<title>23&#45;&gt;25</title>
<path fill="none" stroke="black" d="M1302.03,-579.91C1310.58,-568.54 1319.88,-556.18 1328.46,-544.77"/>
<polygon fill="black" stroke="black" points="1331.34,-546.76 1334.55,-536.67 1325.75,-542.55 1331.34,-546.76"/>
</g>
<!-- 27 -->
<g id="node28" class="node">
<title>27</title>
<path fill="#db4ae7" stroke="black" d="M1700.5,-663C1700.5,-663 1548.5,-663 1548.5,-663 1542.5,-663 1536.5,-657 1536.5,-651 1536.5,-651 1536.5,-592 1536.5,-592 1536.5,-586 1542.5,-580 1548.5,-580 1548.5,-580 1700.5,-580 1700.5,-580 1706.5,-580 1712.5,-586 1712.5,-592 1712.5,-592 1712.5,-651 1712.5,-651 1712.5,-657 1706.5,-663 1700.5,-663"/>
<text text-anchor="start" x="1550.5" y="-647.8" font-family="Helvetica,sans-Serif" font-size="14.00">expert_19_0 ≤ 2.645</text>
<text text-anchor="start" x="1567" y="-632.8" font-family="Helvetica,sans-Serif" font-size="14.00">entropy = 0.405</text>
<text text-anchor="start" x="1571.5" y="-617.8" font-family="Helvetica,sans-Serif" font-size="14.00">samples = 136</text>
<text text-anchor="start" x="1544.5" y="-602.8" font-family="Helvetica,sans-Serif" font-size="14.00">value = [11, 0, 0, 125]</text>
<text text-anchor="start" x="1592" y="-587.8" font-family="Helvetica,sans-Serif" font-size="14.00">class = 3</text>
</g>
<!-- 26&#45;&gt;27 -->
<g id="edge27" class="edge">
<title>26&#45;&gt;27</title>
<path fill="none" stroke="black" d="M1624.5,-698.91C1624.5,-690.65 1624.5,-681.86 1624.5,-673.3"/>
<polygon fill="black" stroke="black" points="1628,-673.02 1624.5,-663.02 1621,-673.02 1628,-673.02"/>
</g>
<!-- 34 -->
<g id="node35" class="node">
<title>34</title>
<path fill="#4ae53d" stroke="black" d="M1975,-663C1975,-663 1832,-663 1832,-663 1826,-663 1820,-657 1820,-651 1820,-651 1820,-592 1820,-592 1820,-586 1826,-580 1832,-580 1832,-580 1975,-580 1975,-580 1981,-580 1987,-586 1987,-592 1987,-592 1987,-651 1987,-651 1987,-657 1981,-663 1975,-663"/>
<text text-anchor="start" x="1829.5" y="-647.8" font-family="Helvetica,sans-Serif" font-size="14.00">expert_4_1 ≤ 10.348</text>
<text text-anchor="start" x="1846" y="-632.8" font-family="Helvetica,sans-Serif" font-size="14.00">entropy = 0.128</text>
<text text-anchor="start" x="1850.5" y="-617.8" font-family="Helvetica,sans-Serif" font-size="14.00">samples = 113</text>
<text text-anchor="start" x="1828" y="-602.8" font-family="Helvetica,sans-Serif" font-size="14.00">value = [0, 111, 0, 2]</text>
<text text-anchor="start" x="1871" y="-587.8" font-family="Helvetica,sans-Serif" font-size="14.00">class = 1</text>
</g>
<!-- 26&#45;&gt;34 -->
<g id="edge34" class="edge">
<title>26&#45;&gt;34</title>
<path fill="none" stroke="black" d="M1721.3,-698.91C1750.14,-686.81 1781.69,-673.58 1810.3,-661.59"/>
<polygon fill="black" stroke="black" points="1812.01,-664.66 1819.88,-657.57 1809.3,-658.21 1812.01,-664.66"/>
</g>
<!-- 28 -->
<g id="node29" class="node">
<title>28</title>
<path fill="#d73be5" stroke="black" d="M1607,-544C1607,-544 1464,-544 1464,-544 1458,-544 1452,-538 1452,-532 1452,-532 1452,-473 1452,-473 1452,-467 1458,-461 1464,-461 1464,-461 1607,-461 1607,-461 1613,-461 1619,-467 1619,-473 1619,-473 1619,-532 1619,-532 1619,-538 1613,-544 1607,-544"/>
<text text-anchor="start" x="1466" y="-528.8" font-family="Helvetica,sans-Serif" font-size="14.00">expert_15_1 ≤ 0.35</text>
<text text-anchor="start" x="1478" y="-513.8" font-family="Helvetica,sans-Serif" font-size="14.00">entropy = 0.067</text>
<text text-anchor="start" x="1482.5" y="-498.8" font-family="Helvetica,sans-Serif" font-size="14.00">samples = 125</text>
<text text-anchor="start" x="1460" y="-483.8" font-family="Helvetica,sans-Serif" font-size="14.00">value = [1, 0, 0, 124]</text>
<text text-anchor="start" x="1503" y="-468.8" font-family="Helvetica,sans-Serif" font-size="14.00">class = 3</text>
</g>
<!-- 27&#45;&gt;28 -->
<g id="edge28" class="edge">
<title>27&#45;&gt;28</title>
<path fill="none" stroke="black" d="M1593.62,-579.91C1586.79,-570.92 1579.48,-561.32 1572.43,-552.05"/>
<polygon fill="black" stroke="black" points="1575.16,-549.86 1566.32,-544.02 1569.59,-554.1 1575.16,-549.86"/>
</g>
<!-- 31 -->
<g id="node32" class="node">
<title>31</title>
<path fill="#e88e4d" stroke="black" d="M1789.5,-544C1789.5,-544 1649.5,-544 1649.5,-544 1643.5,-544 1637.5,-538 1637.5,-532 1637.5,-532 1637.5,-473 1637.5,-473 1637.5,-467 1643.5,-461 1649.5,-461 1649.5,-461 1789.5,-461 1789.5,-461 1795.5,-461 1801.5,-467 1801.5,-473 1801.5,-473 1801.5,-532 1801.5,-532 1801.5,-538 1795.5,-544 1789.5,-544"/>
<text text-anchor="start" x="1645.5" y="-528.8" font-family="Helvetica,sans-Serif" font-size="14.00">expert_17_2 ≤ 0.484</text>
<text text-anchor="start" x="1662" y="-513.8" font-family="Helvetica,sans-Serif" font-size="14.00">entropy = 0.439</text>
<text text-anchor="start" x="1671" y="-498.8" font-family="Helvetica,sans-Serif" font-size="14.00">samples = 11</text>
<text text-anchor="start" x="1648.5" y="-483.8" font-family="Helvetica,sans-Serif" font-size="14.00">value = [10, 0, 0, 1]</text>
<text text-anchor="start" x="1687" y="-468.8" font-family="Helvetica,sans-Serif" font-size="14.00">class = 0</text>
</g>
<!-- 27&#45;&gt;31 -->
<g id="edge31" class="edge">
<title>27&#45;&gt;31</title>
<path fill="none" stroke="black" d="M1657.46,-579.91C1664.75,-570.92 1672.56,-561.32 1680.08,-552.05"/>
<polygon fill="black" stroke="black" points="1683.01,-553.99 1686.6,-544.02 1677.58,-549.58 1683.01,-553.99"/>
</g>
<!-- 29 -->
<g id="node30" class="node">
<title>29</title>
<path fill="#d739e5" stroke="black" d="M1443,-417.5C1443,-417.5 1300,-417.5 1300,-417.5 1294,-417.5 1288,-411.5 1288,-405.5 1288,-405.5 1288,-361.5 1288,-361.5 1288,-355.5 1294,-349.5 1300,-349.5 1300,-349.5 1443,-349.5 1443,-349.5 1449,-349.5 1455,-355.5 1455,-361.5 1455,-361.5 1455,-405.5 1455,-405.5 1455,-411.5 1449,-417.5 1443,-417.5"/>
<text text-anchor="start" x="1323" y="-402.3" font-family="Helvetica,sans-Serif" font-size="14.00">entropy = 0.0</text>
<text text-anchor="start" x="1318.5" y="-387.3" font-family="Helvetica,sans-Serif" font-size="14.00">samples = 120</text>
<text text-anchor="start" x="1296" y="-372.3" font-family="Helvetica,sans-Serif" font-size="14.00">value = [0, 0, 0, 120]</text>
<text text-anchor="start" x="1339" y="-357.3" font-family="Helvetica,sans-Serif" font-size="14.00">class = 3</text>
</g>
<!-- 28&#45;&gt;29 -->
<g id="edge29" class="edge">
<title>28&#45;&gt;29</title>
<path fill="none" stroke="black" d="M1478.6,-460.91C1461.74,-448.88 1443.32,-435.73 1426.57,-423.79"/>
<polygon fill="black" stroke="black" points="1428.16,-420.63 1417.99,-417.67 1424.1,-426.32 1428.16,-420.63"/>
</g>
<!-- 30 -->
<g id="node31" class="node">
<title>30</title>
<path fill="#e16aec" stroke="black" d="M1610,-417.5C1610,-417.5 1485,-417.5 1485,-417.5 1479,-417.5 1473,-411.5 1473,-405.5 1473,-405.5 1473,-361.5 1473,-361.5 1473,-355.5 1479,-349.5 1485,-349.5 1485,-349.5 1610,-349.5 1610,-349.5 1616,-349.5 1622,-355.5 1622,-361.5 1622,-361.5 1622,-405.5 1622,-405.5 1622,-411.5 1616,-417.5 1610,-417.5"/>
<text text-anchor="start" x="1490" y="-402.3" font-family="Helvetica,sans-Serif" font-size="14.00">entropy = 0.722</text>
<text text-anchor="start" x="1503.5" y="-387.3" font-family="Helvetica,sans-Serif" font-size="14.00">samples = 5</text>
<text text-anchor="start" x="1481" y="-372.3" font-family="Helvetica,sans-Serif" font-size="14.00">value = [1, 0, 0, 4]</text>
<text text-anchor="start" x="1515" y="-357.3" font-family="Helvetica,sans-Serif" font-size="14.00">class = 3</text>
</g>
<!-- 28&#45;&gt;30 -->
<g id="edge30" class="edge">
<title>28&#45;&gt;30</title>
<path fill="none" stroke="black" d="M1539.66,-460.91C1540.76,-450.2 1541.95,-438.62 1543.06,-427.78"/>
<polygon fill="black" stroke="black" points="1546.56,-427.97 1544.1,-417.67 1539.6,-427.26 1546.56,-427.97"/>
</g>
<!-- 32 -->
<g id="node33" class="node">
<title>32</title>
<path fill="#e58139" stroke="black" d="M1780,-417.5C1780,-417.5 1655,-417.5 1655,-417.5 1649,-417.5 1643,-411.5 1643,-405.5 1643,-405.5 1643,-361.5 1643,-361.5 1643,-355.5 1649,-349.5 1655,-349.5 1655,-349.5 1780,-349.5 1780,-349.5 1786,-349.5 1792,-355.5 1792,-361.5 1792,-361.5 1792,-405.5 1792,-405.5 1792,-411.5 1786,-417.5 1780,-417.5"/>
<text text-anchor="start" x="1669" y="-402.3" font-family="Helvetica,sans-Serif" font-size="14.00">entropy = 0.0</text>
<text text-anchor="start" x="1673.5" y="-387.3" font-family="Helvetica,sans-Serif" font-size="14.00">samples = 8</text>
<text text-anchor="start" x="1651" y="-372.3" font-family="Helvetica,sans-Serif" font-size="14.00">value = [8, 0, 0, 0]</text>
<text text-anchor="start" x="1685" y="-357.3" font-family="Helvetica,sans-Serif" font-size="14.00">class = 0</text>
</g>
<!-- 31&#45;&gt;32 -->
<g id="edge32" class="edge">
<title>31&#45;&gt;32</title>
<path fill="none" stroke="black" d="M1718.81,-460.91C1718.62,-450.2 1718.43,-438.62 1718.24,-427.78"/>
<polygon fill="black" stroke="black" points="1721.74,-427.61 1718.07,-417.67 1714.74,-427.73 1721.74,-427.61"/>
</g>
<!-- 33 -->
<g id="node34" class="node">
<title>33</title>
<path fill="#f2c09c" stroke="black" d="M1947,-417.5C1947,-417.5 1822,-417.5 1822,-417.5 1816,-417.5 1810,-411.5 1810,-405.5 1810,-405.5 1810,-361.5 1810,-361.5 1810,-355.5 1816,-349.5 1822,-349.5 1822,-349.5 1947,-349.5 1947,-349.5 1953,-349.5 1959,-355.5 1959,-361.5 1959,-361.5 1959,-405.5 1959,-405.5 1959,-411.5 1953,-417.5 1947,-417.5"/>
<text text-anchor="start" x="1827" y="-402.3" font-family="Helvetica,sans-Serif" font-size="14.00">entropy = 0.918</text>
<text text-anchor="start" x="1840.5" y="-387.3" font-family="Helvetica,sans-Serif" font-size="14.00">samples = 3</text>
<text text-anchor="start" x="1818" y="-372.3" font-family="Helvetica,sans-Serif" font-size="14.00">value = [2, 0, 0, 1]</text>
<text text-anchor="start" x="1852" y="-357.3" font-family="Helvetica,sans-Serif" font-size="14.00">class = 0</text>
</g>
<!-- 31&#45;&gt;33 -->
<g id="edge33" class="edge">
<title>31&#45;&gt;33</title>
<path fill="none" stroke="black" d="M1776.75,-460.91C1793.86,-448.77 1812.59,-435.49 1829.55,-423.46"/>
<polygon fill="black" stroke="black" points="1831.59,-426.31 1837.73,-417.67 1827.54,-420.6 1831.59,-426.31"/>
</g>
<!-- 35 -->
<g id="node36" class="node">
<title>35</title>
<path fill="#47e539" stroke="black" d="M1975,-536.5C1975,-536.5 1832,-536.5 1832,-536.5 1826,-536.5 1820,-530.5 1820,-524.5 1820,-524.5 1820,-480.5 1820,-480.5 1820,-474.5 1826,-468.5 1832,-468.5 1832,-468.5 1975,-468.5 1975,-468.5 1981,-468.5 1987,-474.5 1987,-480.5 1987,-480.5 1987,-524.5 1987,-524.5 1987,-530.5 1981,-536.5 1975,-536.5"/>
<text text-anchor="start" x="1855" y="-521.3" font-family="Helvetica,sans-Serif" font-size="14.00">entropy = 0.0</text>
<text text-anchor="start" x="1850.5" y="-506.3" font-family="Helvetica,sans-Serif" font-size="14.00">samples = 110</text>
<text text-anchor="start" x="1828" y="-491.3" font-family="Helvetica,sans-Serif" font-size="14.00">value = [0, 110, 0, 0]</text>
<text text-anchor="start" x="1871" y="-476.3" font-family="Helvetica,sans-Serif" font-size="14.00">class = 1</text>
</g>
<!-- 34&#45;&gt;35 -->
<g id="edge35" class="edge">
<title>34&#45;&gt;35</title>
<path fill="none" stroke="black" d="M1903.5,-579.91C1903.5,-569.2 1903.5,-557.62 1903.5,-546.78"/>
<polygon fill="black" stroke="black" points="1907,-546.67 1903.5,-536.67 1900,-546.67 1907,-546.67"/>
</g>
<!-- 36 -->
<g id="node37" class="node">
<title>36</title>
<path fill="#eb9cf2" stroke="black" d="M2142,-536.5C2142,-536.5 2017,-536.5 2017,-536.5 2011,-536.5 2005,-530.5 2005,-524.5 2005,-524.5 2005,-480.5 2005,-480.5 2005,-474.5 2011,-468.5 2017,-468.5 2017,-468.5 2142,-468.5 2142,-468.5 2148,-468.5 2154,-474.5 2154,-480.5 2154,-480.5 2154,-524.5 2154,-524.5 2154,-530.5 2148,-536.5 2142,-536.5"/>
<text text-anchor="start" x="2022" y="-521.3" font-family="Helvetica,sans-Serif" font-size="14.00">entropy = 0.918</text>
<text text-anchor="start" x="2035.5" y="-506.3" font-family="Helvetica,sans-Serif" font-size="14.00">samples = 3</text>
<text text-anchor="start" x="2013" y="-491.3" font-family="Helvetica,sans-Serif" font-size="14.00">value = [0, 1, 0, 2]</text>
<text text-anchor="start" x="2047" y="-476.3" font-family="Helvetica,sans-Serif" font-size="14.00">class = 3</text>
</g>
<!-- 34&#45;&gt;36 -->
<g id="edge36" class="edge">
<title>34&#45;&gt;36</title>
<path fill="none" stroke="black" d="M1964.56,-579.91C1982.82,-567.77 2002.79,-554.49 2020.89,-542.46"/>
<polygon fill="black" stroke="black" points="2023.22,-545.12 2029.61,-536.67 2019.34,-539.29 2023.22,-545.12"/>
</g>
</g>
</svg>
