<?xml version="1.0" encoding="UTF-8" standalone="no"?>
<!DOCTYPE svg PUBLIC "-//W3C//DTD SVG 1.1//EN"
 "http://www.w3.org/Graphics/SVG/1.1/DTD/svg11.dtd">
<!-- Generated by graphviz version 2.43.0 (0)
 -->
<!-- Title: Tree Pages: 1 -->
<svg width="1406pt" height="433pt"
 viewBox="0.00 0.00 1406.00 433.00" xmlns="http://www.w3.org/2000/svg" xmlns:xlink="http://www.w3.org/1999/xlink">
<g id="graph0" class="graph" transform="scale(1 1) rotate(0) translate(4 429)">
<title>Tree</title>
<polygon fill="white" stroke="transparent" points="-4,4 -4,-429 1402,-429 1402,4 -4,4"/>
<!-- 0 -->
<g id="node1" class="node">
<title>0</title>
<path fill="#ffffff" stroke="black" d="M779,-425C779,-425 582,-425 582,-425 576,-425 570,-419 570,-413 570,-413 570,-354 570,-354 570,-348 576,-342 582,-342 582,-342 779,-342 779,-342 785,-342 791,-348 791,-354 791,-354 791,-413 791,-413 791,-419 785,-425 779,-425"/>
<text text-anchor="start" x="611" y="-409.8" font-family="Helvetica,sans-Serif" font-size="14.00">expert_4_2 ≤ 9.037</text>
<text text-anchor="start" x="632" y="-394.8" font-family="Helvetica,sans-Serif" font-size="14.00">entropy = 2.0</text>
<text text-anchor="start" x="627.5" y="-379.8" font-family="Helvetica,sans-Serif" font-size="14.00">samples = 520</text>
<text text-anchor="start" x="578" y="-364.8" font-family="Helvetica,sans-Serif" font-size="14.00">value = [130, 130, 130, 130]</text>
<text text-anchor="start" x="648" y="-349.8" font-family="Helvetica,sans-Serif" font-size="14.00">class = 0</text>
</g>
<!-- 1 -->
<g id="node2" class="node">
<title>1</title>
<path fill="#f7fbfe" stroke="black" d="M648.5,-306C648.5,-306 478.5,-306 478.5,-306 472.5,-306 466.5,-300 466.5,-294 466.5,-294 466.5,-235 466.5,-235 466.5,-229 472.5,-223 478.5,-223 478.5,-223 648.5,-223 648.5,-223 654.5,-223 660.5,-229 660.5,-235 660.5,-235 660.5,-294 660.5,-294 660.5,-300 654.5,-306 648.5,-306"/>
<text text-anchor="start" x="494" y="-290.8" font-family="Helvetica,sans-Serif" font-size="14.00">expert_3_1 ≤ 0.956</text>
<text text-anchor="start" x="506" y="-275.8" font-family="Helvetica,sans-Serif" font-size="14.00">entropy = 1.387</text>
<text text-anchor="start" x="510.5" y="-260.8" font-family="Helvetica,sans-Serif" font-size="14.00">samples = 275</text>
<text text-anchor="start" x="474.5" y="-245.8" font-family="Helvetica,sans-Serif" font-size="14.00">value = [123, 19, 129, 4]</text>
<text text-anchor="start" x="531" y="-230.8" font-family="Helvetica,sans-Serif" font-size="14.00">class = 2</text>
</g>
<!-- 0&#45;&gt;1 -->
<g id="edge1" class="edge">
<title>0&#45;&gt;1</title>
<path fill="none" stroke="black" d="M639.91,-341.91C630.65,-332.65 620.73,-322.73 611.21,-313.21"/>
<polygon fill="black" stroke="black" points="613.57,-310.62 604.02,-306.02 608.62,-315.57 613.57,-310.62"/>
<text text-anchor="middle" x="604.02" y="-327.32" font-family="Helvetica,sans-Serif" font-size="14.00">True</text>
</g>
<!-- 8 -->
<g id="node9" class="node">
<title>8</title>
<path fill="#fbe9fc" stroke="black" d="M959,-306C959,-306 744,-306 744,-306 738,-306 732,-300 732,-294 732,-294 732,-235 732,-235 732,-229 738,-223 744,-223 744,-223 959,-223 959,-223 965,-223 971,-229 971,-235 971,-235 971,-294 971,-294 971,-300 965,-306 959,-306"/>
<text text-anchor="start" x="777.5" y="-290.8" font-family="Helvetica,sans-Serif" font-size="14.00">expert_0_2 ≤ 13.945</text>
<text text-anchor="start" x="798.5" y="-275.8" font-family="Helvetica,sans-Serif" font-size="14.00">entropy = 1.19</text>
<text text-anchor="start" x="798.5" y="-260.8" font-family="Helvetica,sans-Serif" font-size="14.00">samples = 245</text>
<text text-anchor="start" x="740" y="-245.8" font-family="Helvetica,sans-Serif" font-size="14.00">value = [7.0, 111.0, 1.0, 126.0]</text>
<text text-anchor="start" x="819" y="-230.8" font-family="Helvetica,sans-Serif" font-size="14.00">class = 3</text>
</g>
<!-- 0&#45;&gt;8 -->
<g id="edge8" class="edge">
<title>0&#45;&gt;8</title>
<path fill="none" stroke="black" d="M739.83,-341.91C754.02,-332.2 769.28,-321.76 783.81,-311.81"/>
<polygon fill="black" stroke="black" points="786,-314.56 792.28,-306.02 782.05,-308.78 786,-314.56"/>
<text text-anchor="middle" x="787.67" y="-326.89" font-family="Helvetica,sans-Serif" font-size="14.00">False</text>
</g>
<!-- 2 -->
<g id="node3" class="node">
<title>2</title>
<path fill="#61b1ea" stroke="black" d="M339.5,-187C339.5,-187 187.5,-187 187.5,-187 181.5,-187 175.5,-181 175.5,-175 175.5,-175 175.5,-116 175.5,-116 175.5,-110 181.5,-104 187.5,-104 187.5,-104 339.5,-104 339.5,-104 345.5,-104 351.5,-110 351.5,-116 351.5,-116 351.5,-175 351.5,-175 351.5,-181 345.5,-187 339.5,-187"/>
<text text-anchor="start" x="189.5" y="-171.8" font-family="Helvetica,sans-Serif" font-size="14.00">expert_12_1 ≤ 7.951</text>
<text text-anchor="start" x="206" y="-156.8" font-family="Helvetica,sans-Serif" font-size="14.00">entropy = 0.861</text>
<text text-anchor="start" x="210.5" y="-141.8" font-family="Helvetica,sans-Serif" font-size="14.00">samples = 149</text>
<text text-anchor="start" x="183.5" y="-126.8" font-family="Helvetica,sans-Serif" font-size="14.00">value = [3, 19, 123, 4]</text>
<text text-anchor="start" x="231" y="-111.8" font-family="Helvetica,sans-Serif" font-size="14.00">class = 2</text>
</g>
<!-- 1&#45;&gt;2 -->
<g id="edge2" class="edge">
<title>1&#45;&gt;2</title>
<path fill="none" stroke="black" d="M466.1,-225.51C432.4,-212.37 394.64,-197.64 360.94,-184.5"/>
<polygon fill="black" stroke="black" points="362.13,-181.21 351.54,-180.84 359.59,-187.73 362.13,-181.21"/>
</g>
<!-- 5 -->
<g id="node6" class="node">
<title>5</title>
<path fill="#e68743" stroke="black" d="M635,-187C635,-187 492,-187 492,-187 486,-187 480,-181 480,-175 480,-175 480,-116 480,-116 480,-110 486,-104 492,-104 492,-104 635,-104 635,-104 641,-104 647,-110 647,-116 647,-116 647,-175 647,-175 647,-181 641,-187 635,-187"/>
<text text-anchor="start" x="489.5" y="-171.8" font-family="Helvetica,sans-Serif" font-size="14.00">expert_13_1 ≤ 0.312</text>
<text text-anchor="start" x="506" y="-156.8" font-family="Helvetica,sans-Serif" font-size="14.00">entropy = 0.276</text>
<text text-anchor="start" x="510.5" y="-141.8" font-family="Helvetica,sans-Serif" font-size="14.00">samples = 126</text>
<text text-anchor="start" x="488" y="-126.8" font-family="Helvetica,sans-Serif" font-size="14.00">value = [120, 0, 6, 0]</text>
<text text-anchor="start" x="531" y="-111.8" font-family="Helvetica,sans-Serif" font-size="14.00">class = 0</text>
</g>
<!-- 1&#45;&gt;5 -->
<g id="edge5" class="edge">
<title>1&#45;&gt;5</title>
<path fill="none" stroke="black" d="M563.5,-222.91C563.5,-214.65 563.5,-205.86 563.5,-197.3"/>
<polygon fill="black" stroke="black" points="567,-197.02 563.5,-187.02 560,-197.02 567,-197.02"/>
</g>
<!-- 3 -->
<g id="node4" class="node">
<title>3</title>
<path fill="#4ca6e7" stroke="black" d="M155,-68C155,-68 12,-68 12,-68 6,-68 0,-62 0,-56 0,-56 0,-12 0,-12 0,-6 6,0 12,0 12,0 155,0 155,0 161,0 167,-6 167,-12 167,-12 167,-56 167,-56 167,-62 161,-68 155,-68"/>
<text text-anchor="start" x="26" y="-52.8" font-family="Helvetica,sans-Serif" font-size="14.00">entropy = 0.577</text>
<text text-anchor="start" x="30.5" y="-37.8" font-family="Helvetica,sans-Serif" font-size="14.00">samples = 133</text>
<text text-anchor="start" x="8" y="-22.8" font-family="Helvetica,sans-Serif" font-size="14.00">value = [3, 5, 121, 4]</text>
<text text-anchor="start" x="51" y="-7.8" font-family="Helvetica,sans-Serif" font-size="14.00">class = 2</text>
</g>
<!-- 2&#45;&gt;3 -->
<g id="edge3" class="edge">
<title>2&#45;&gt;3</title>
<path fill="none" stroke="black" d="M196.73,-103.88C180.35,-93.92 162.87,-83.29 146.67,-73.43"/>
<polygon fill="black" stroke="black" points="148.18,-70.25 137.82,-68.04 144.54,-76.23 148.18,-70.25"/>
</g>
<!-- 4 -->
<g id="node5" class="node">
<title>4</title>
<path fill="#61e955" stroke="black" d="M330.5,-68C330.5,-68 196.5,-68 196.5,-68 190.5,-68 184.5,-62 184.5,-56 184.5,-56 184.5,-12 184.5,-12 184.5,-6 190.5,0 196.5,0 196.5,0 330.5,0 330.5,0 336.5,0 342.5,-6 342.5,-12 342.5,-12 342.5,-56 342.5,-56 342.5,-62 336.5,-68 330.5,-68"/>
<text text-anchor="start" x="206" y="-52.8" font-family="Helvetica,sans-Serif" font-size="14.00">entropy = 0.544</text>
<text text-anchor="start" x="215" y="-37.8" font-family="Helvetica,sans-Serif" font-size="14.00">samples = 16</text>
<text text-anchor="start" x="192.5" y="-22.8" font-family="Helvetica,sans-Serif" font-size="14.00">value = [0, 14, 2, 0]</text>
<text text-anchor="start" x="231" y="-7.8" font-family="Helvetica,sans-Serif" font-size="14.00">class = 1</text>
</g>
<!-- 2&#45;&gt;4 -->
<g id="edge4" class="edge">
<title>2&#45;&gt;4</title>
<path fill="none" stroke="black" d="M263.5,-103.73C263.5,-95.52 263.5,-86.86 263.5,-78.56"/>
<polygon fill="black" stroke="black" points="267,-78.3 263.5,-68.3 260,-78.3 267,-78.3"/>
</g>
<!-- 6 -->
<g id="node7" class="node">
<title>6</title>
<path fill="#e58139" stroke="black" d="M515,-68C515,-68 372,-68 372,-68 366,-68 360,-62 360,-56 360,-56 360,-12 360,-12 360,-6 366,0 372,0 372,0 515,0 515,0 521,0 527,-6 527,-12 527,-12 527,-56 527,-56 527,-62 521,-68 515,-68"/>
<text text-anchor="start" x="395" y="-52.8" font-family="Helvetica,sans-Serif" font-size="14.00">entropy = 0.0</text>
<text text-anchor="start" x="390.5" y="-37.8" font-family="Helvetica,sans-Serif" font-size="14.00">samples = 119</text>
<text text-anchor="start" x="368" y="-22.8" font-family="Helvetica,sans-Serif" font-size="14.00">value = [119, 0, 0, 0]</text>
<text text-anchor="start" x="411" y="-7.8" font-family="Helvetica,sans-Serif" font-size="14.00">class = 0</text>
</g>
<!-- 5&#45;&gt;6 -->
<g id="edge6" class="edge">
<title>5&#45;&gt;6</title>
<path fill="none" stroke="black" d="M518.82,-103.73C508.62,-94.42 497.79,-84.54 487.62,-75.26"/>
<polygon fill="black" stroke="black" points="489.74,-72.45 479.99,-68.3 485.02,-77.63 489.74,-72.45"/>
</g>
<!-- 7 -->
<g id="node8" class="node">
<title>7</title>
<path fill="#5aade9" stroke="black" d="M682,-68C682,-68 557,-68 557,-68 551,-68 545,-62 545,-56 545,-56 545,-12 545,-12 545,-6 551,0 557,0 557,0 682,0 682,0 688,0 694,-6 694,-12 694,-12 694,-56 694,-56 694,-62 688,-68 682,-68"/>
<text text-anchor="start" x="562" y="-52.8" font-family="Helvetica,sans-Serif" font-size="14.00">entropy = 0.592</text>
<text text-anchor="start" x="575.5" y="-37.8" font-family="Helvetica,sans-Serif" font-size="14.00">samples = 7</text>
<text text-anchor="start" x="553" y="-22.8" font-family="Helvetica,sans-Serif" font-size="14.00">value = [1, 0, 6, 0]</text>
<text text-anchor="start" x="587" y="-7.8" font-family="Helvetica,sans-Serif" font-size="14.00">class = 2</text>
</g>
<!-- 5&#45;&gt;7 -->
<g id="edge7" class="edge">
<title>5&#45;&gt;7</title>
<path fill="none" stroke="black" d="M584.35,-103.73C588.74,-95.15 593.37,-86.09 597.79,-77.46"/>
<polygon fill="black" stroke="black" points="601.03,-78.8 602.47,-68.3 594.8,-75.61 601.03,-78.8"/>
</g>
<!-- 9 -->
<g id="node10" class="node">
<title>9</title>
<path fill="#da46e7" stroke="black" d="M923,-187C923,-187 780,-187 780,-187 774,-187 768,-181 768,-175 768,-175 768,-116 768,-116 768,-110 774,-104 780,-104 780,-104 923,-104 923,-104 929,-104 935,-110 935,-116 935,-116 935,-175 935,-175 935,-181 929,-187 923,-187"/>
<text text-anchor="start" x="777.5" y="-171.8" font-family="Helvetica,sans-Serif" font-size="14.00">expert_21_2 ≤ 3.669</text>
<text text-anchor="start" x="794" y="-156.8" font-family="Helvetica,sans-Serif" font-size="14.00">entropy = 0.365</text>
<text text-anchor="start" x="798.5" y="-141.8" font-family="Helvetica,sans-Serif" font-size="14.00">samples = 131</text>
<text text-anchor="start" x="776" y="-126.8" font-family="Helvetica,sans-Serif" font-size="14.00">value = [7, 0, 1, 123]</text>
<text text-anchor="start" x="819" y="-111.8" font-family="Helvetica,sans-Serif" font-size="14.00">class = 3</text>
</g>
<!-- 8&#45;&gt;9 -->
<g id="edge9" class="edge">
<title>8&#45;&gt;9</title>
<path fill="none" stroke="black" d="M851.5,-222.91C851.5,-214.65 851.5,-205.86 851.5,-197.3"/>
<polygon fill="black" stroke="black" points="855,-197.02 851.5,-187.02 848,-197.02 855,-197.02"/>
</g>
<!-- 12 -->
<g id="node13" class="node">
<title>12</title>
<path fill="#4ce63e" stroke="black" d="M1210,-187C1210,-187 1067,-187 1067,-187 1061,-187 1055,-181 1055,-175 1055,-175 1055,-116 1055,-116 1055,-110 1061,-104 1067,-104 1067,-104 1210,-104 1210,-104 1216,-104 1222,-110 1222,-116 1222,-116 1222,-175 1222,-175 1222,-181 1216,-187 1210,-187"/>
<text text-anchor="start" x="1064.5" y="-171.8" font-family="Helvetica,sans-Serif" font-size="14.00">expert_0_2 ≤ 27.049</text>
<text text-anchor="start" x="1081" y="-156.8" font-family="Helvetica,sans-Serif" font-size="14.00">entropy = 0.176</text>
<text text-anchor="start" x="1085.5" y="-141.8" font-family="Helvetica,sans-Serif" font-size="14.00">samples = 114</text>
<text text-anchor="start" x="1063" y="-126.8" font-family="Helvetica,sans-Serif" font-size="14.00">value = [0, 111, 0, 3]</text>
<text text-anchor="start" x="1106" y="-111.8" font-family="Helvetica,sans-Serif" font-size="14.00">class = 1</text>
</g>
<!-- 8&#45;&gt;12 -->
<g id="edge12" class="edge">
<title>8&#45;&gt;12</title>
<path fill="none" stroke="black" d="M951.07,-222.91C981.61,-210.46 1015.07,-196.82 1045.17,-184.55"/>
<polygon fill="black" stroke="black" points="1046.88,-187.63 1054.82,-180.61 1044.24,-181.15 1046.88,-187.63"/>
</g>
<!-- 10 -->
<g id="node11" class="node">
<title>10</title>
<path fill="#d83ce5" stroke="black" d="M867,-68C867,-68 724,-68 724,-68 718,-68 712,-62 712,-56 712,-56 712,-12 712,-12 712,-6 718,0 724,0 724,0 867,0 867,0 873,0 879,-6 879,-12 879,-12 879,-56 879,-56 879,-62 873,-68 867,-68"/>
<text text-anchor="start" x="738" y="-52.8" font-family="Helvetica,sans-Serif" font-size="14.00">entropy = 0.134</text>
<text text-anchor="start" x="742.5" y="-37.8" font-family="Helvetica,sans-Serif" font-size="14.00">samples = 125</text>
<text text-anchor="start" x="720" y="-22.8" font-family="Helvetica,sans-Serif" font-size="14.00">value = [1, 0, 1, 123]</text>
<text text-anchor="start" x="763" y="-7.8" font-family="Helvetica,sans-Serif" font-size="14.00">class = 3</text>
</g>
<!-- 9&#45;&gt;10 -->
<g id="edge10" class="edge">
<title>9&#45;&gt;10</title>
<path fill="none" stroke="black" d="M830.65,-103.73C826.26,-95.15 821.63,-86.09 817.21,-77.46"/>
<polygon fill="black" stroke="black" points="820.2,-75.61 812.53,-68.3 813.97,-78.8 820.2,-75.61"/>
</g>
<!-- 11 -->
<g id="node12" class="node">
<title>11</title>
<path fill="#e58139" stroke="black" d="M1034,-68C1034,-68 909,-68 909,-68 903,-68 897,-62 897,-56 897,-56 897,-12 897,-12 897,-6 903,0 909,0 909,0 1034,0 1034,0 1040,0 1046,-6 1046,-12 1046,-12 1046,-56 1046,-56 1046,-62 1040,-68 1034,-68"/>
<text text-anchor="start" x="923" y="-52.8" font-family="Helvetica,sans-Serif" font-size="14.00">entropy = 0.0</text>
<text text-anchor="start" x="927.5" y="-37.8" font-family="Helvetica,sans-Serif" font-size="14.00">samples = 6</text>
<text text-anchor="start" x="905" y="-22.8" font-family="Helvetica,sans-Serif" font-size="14.00">value = [6, 0, 0, 0]</text>
<text text-anchor="start" x="939" y="-7.8" font-family="Helvetica,sans-Serif" font-size="14.00">class = 0</text>
</g>
<!-- 9&#45;&gt;11 -->
<g id="edge11" class="edge">
<title>9&#45;&gt;11</title>
<path fill="none" stroke="black" d="M896.18,-103.73C906.38,-94.42 917.21,-84.54 927.38,-75.26"/>
<polygon fill="black" stroke="black" points="929.98,-77.63 935.01,-68.3 925.26,-72.45 929.98,-77.63"/>
</g>
<!-- 13 -->
<g id="node14" class="node">
<title>13</title>
<path fill="#84ee7b" stroke="black" d="M1201,-68C1201,-68 1076,-68 1076,-68 1070,-68 1064,-62 1064,-56 1064,-56 1064,-12 1064,-12 1064,-6 1070,0 1076,0 1076,0 1201,0 1201,0 1207,0 1213,-6 1213,-12 1213,-12 1213,-56 1213,-56 1213,-62 1207,-68 1201,-68"/>
<text text-anchor="start" x="1081" y="-52.8" font-family="Helvetica,sans-Serif" font-size="14.00">entropy = 0.811</text>
<text text-anchor="start" x="1090" y="-37.8" font-family="Helvetica,sans-Serif" font-size="14.00">samples = 12</text>
<text text-anchor="start" x="1072" y="-22.8" font-family="Helvetica,sans-Serif" font-size="14.00">value = [0, 9, 0, 3]</text>
<text text-anchor="start" x="1106" y="-7.8" font-family="Helvetica,sans-Serif" font-size="14.00">class = 1</text>
</g>
<!-- 12&#45;&gt;13 -->
<g id="edge13" class="edge">
<title>12&#45;&gt;13</title>
<path fill="none" stroke="black" d="M1138.5,-103.73C1138.5,-95.52 1138.5,-86.86 1138.5,-78.56"/>
<polygon fill="black" stroke="black" points="1142,-78.3 1138.5,-68.3 1135,-78.3 1142,-78.3"/>
</g>
<!-- 14 -->
<g id="node15" class="node">
<title>14</title>
<path fill="#47e539" stroke="black" d="M1386,-68C1386,-68 1243,-68 1243,-68 1237,-68 1231,-62 1231,-56 1231,-56 1231,-12 1231,-12 1231,-6 1237,0 1243,0 1243,0 1386,0 1386,0 1392,0 1398,-6 1398,-12 1398,-12 1398,-56 1398,-56 1398,-62 1392,-68 1386,-68"/>
<text text-anchor="start" x="1266" y="-52.8" font-family="Helvetica,sans-Serif" font-size="14.00">entropy = 0.0</text>
<text text-anchor="start" x="1261.5" y="-37.8" font-family="Helvetica,sans-Serif" font-size="14.00">samples = 102</text>
<text text-anchor="start" x="1239" y="-22.8" font-family="Helvetica,sans-Serif" font-size="14.00">value = [0, 102, 0, 0]</text>
<text text-anchor="start" x="1282" y="-7.8" font-family="Helvetica,sans-Serif" font-size="14.00">class = 1</text>
</g>
<!-- 12&#45;&gt;14 -->
<g id="edge14" class="edge">
<title>12&#45;&gt;14</title>
<path fill="none" stroke="black" d="M1204.04,-103.73C1219.95,-93.82 1236.92,-83.27 1252.66,-73.48"/>
<polygon fill="black" stroke="black" points="1254.62,-76.38 1261.26,-68.13 1250.92,-70.44 1254.62,-76.38"/>
</g>
</g>
</svg>
